<svg width="20" height="20" viewBox="0 0 20 20" fill="none" xmlns="http://www.w3.org/2000/svg">
<path d="M9.48073 1.99883C9.67288 1.53685 10.3273 1.53685 10.5195 1.99883L12.6454 7.11028C12.7264 7.30504 12.9096 7.43811 13.1199 7.45497L18.6381 7.89736C19.1369 7.93735 19.3391 8.55976 18.9591 8.88526L14.7548 12.4867C14.5946 12.6239 14.5246 12.8392 14.5736 13.0444L15.858 18.4293C15.9741 18.916 15.4447 19.3007 15.0177 19.0398L10.2933 16.1542C10.1133 16.0443 9.88691 16.0443 9.7069 16.1542L4.98251 19.0398C4.55551 19.3007 4.02606 18.916 4.14215 18.4293L5.42664 13.0444C5.47558 12.8392 5.40562 12.6239 5.24543 12.4867L1.04111 8.88526C0.661119 8.55976 0.863352 7.93735 1.36209 7.89736L6.88034 7.45497C7.0906 7.43811 7.27375 7.30504 7.35476 7.11028L9.48073 1.99883Z" stroke="#999999" stroke-width="1.5" stroke-linecap="round" stroke-linejoin="round"/>
</svg>
