<svg width="36" height="27" viewBox="0 0 36 27" fill="none" xmlns="http://www.w3.org/2000/svg">
<g filter="url(#filter0_b_167_9973)">
<mask id="path-1-inside-1_167_9973" fill="white">
<path fill-rule="evenodd" clip-rule="evenodd" d="M0.466829 17.3455V17.8255C12.0411 17.8255 23.5372 17.8255 35.078 17.8144V17.3343V2.31817C35.078 1.26871 34.6092 0.799805 33.5377 0.799805H2.00709C0.924442 0.799805 0.466829 1.26871 0.466829 2.32933V17.3455ZM16.7237 12.2973C16.2571 12.5672 15.7873 12.839 15.3113 13.1142V6.54948C16.5193 7.25313 17.7092 7.93869 18.9126 8.63207C19.5995 9.02783 20.2908 9.42614 20.9924 9.83182C19.5459 10.6647 18.15 11.4722 16.7237 12.2973ZM29.6771 23.8186C29.5668 23.548 29.4539 23.271 29.341 22.9835H29.3418C30.8482 22.9835 32.2655 22.9835 33.6604 22.9723C34.4194 22.9612 34.9998 22.5369 35.0332 21.8559C35.0718 21.2077 35.0624 20.5541 35.0529 19.8952C35.0487 19.6009 35.0444 19.3055 35.0444 19.009H0.455566V21.3758C0.455566 22.5034 0.924341 22.9723 2.04047 22.9723H6.18131C5.8354 23.8429 5.5118 24.6466 5.18821 25.4502L5.18795 25.4508C5.05402 25.8081 4.99821 26.1653 5.44466 26.3328C5.87995 26.5003 6.09202 26.21 6.23711 25.8527C6.33519 25.6108 6.43519 25.3697 6.53513 25.1288C6.7764 24.5472 7.01738 23.9663 7.23047 23.3742C7.35324 23.0505 7.52066 22.9723 7.84434 22.9723C14.463 22.9835 21.0816 22.9835 27.7003 22.9723C28.0463 22.9723 28.1914 23.084 28.303 23.3966C28.5562 24.0687 28.8264 24.7239 29.0988 25.3843C29.1385 25.4808 29.1784 25.5774 29.2182 25.6741C29.2461 25.7355 29.2712 25.7941 29.2963 25.8527C29.3215 25.9114 29.3466 25.97 29.3745 26.0314C29.5196 26.3551 29.8209 26.5114 30.0888 26.3217C30.2674 26.1988 30.4236 25.8081 30.3567 25.6071C30.1632 25.011 29.9267 24.431 29.6771 23.8186ZM21.9857 21.2083H17.7444C17.276 21.2083 16.8064 21.2071 16.3364 21.2059C15.3952 21.2034 14.4522 21.2009 13.5143 21.2083C13.1348 21.2083 12.7665 21.1637 12.7553 20.6836C12.7441 20.1924 13.1125 20.0919 13.5254 20.0919H21.9969C22.3987 20.0919 22.7781 20.1812 22.7781 20.6725C22.7781 21.186 22.3763 21.2083 21.9857 21.2083Z"/>
</mask>
<path fill-rule="evenodd" clip-rule="evenodd" d="M0.466829 17.3455V17.8255C12.0411 17.8255 23.5372 17.8255 35.078 17.8144V17.3343V2.31817C35.078 1.26871 34.6092 0.799805 33.5377 0.799805H2.00709C0.924442 0.799805 0.466829 1.26871 0.466829 2.32933V17.3455ZM16.7237 12.2973C16.2571 12.5672 15.7873 12.839 15.3113 13.1142V6.54948C16.5193 7.25313 17.7092 7.93869 18.9126 8.63207C19.5995 9.02783 20.2908 9.42614 20.9924 9.83182C19.5459 10.6647 18.15 11.4722 16.7237 12.2973ZM29.6771 23.8186C29.5668 23.548 29.4539 23.271 29.341 22.9835H29.3418C30.8482 22.9835 32.2655 22.9835 33.6604 22.9723C34.4194 22.9612 34.9998 22.5369 35.0332 21.8559C35.0718 21.2077 35.0624 20.5541 35.0529 19.8952C35.0487 19.6009 35.0444 19.3055 35.0444 19.009H0.455566V21.3758C0.455566 22.5034 0.924341 22.9723 2.04047 22.9723H6.18131C5.8354 23.8429 5.5118 24.6466 5.18821 25.4502L5.18795 25.4508C5.05402 25.8081 4.99821 26.1653 5.44466 26.3328C5.87995 26.5003 6.09202 26.21 6.23711 25.8527C6.33519 25.6108 6.43519 25.3697 6.53513 25.1288C6.7764 24.5472 7.01738 23.9663 7.23047 23.3742C7.35324 23.0505 7.52066 22.9723 7.84434 22.9723C14.463 22.9835 21.0816 22.9835 27.7003 22.9723C28.0463 22.9723 28.1914 23.084 28.303 23.3966C28.5562 24.0687 28.8264 24.7239 29.0988 25.3843C29.1385 25.4808 29.1784 25.5774 29.2182 25.6741C29.2461 25.7355 29.2712 25.7941 29.2963 25.8527C29.3215 25.9114 29.3466 25.97 29.3745 26.0314C29.5196 26.3551 29.8209 26.5114 30.0888 26.3217C30.2674 26.1988 30.4236 25.8081 30.3567 25.6071C30.1632 25.011 29.9267 24.431 29.6771 23.8186ZM21.9857 21.2083H17.7444C17.276 21.2083 16.8064 21.2071 16.3364 21.2059C15.3952 21.2034 14.4522 21.2009 13.5143 21.2083C13.1348 21.2083 12.7665 21.1637 12.7553 20.6836C12.7441 20.1924 13.1125 20.0919 13.5254 20.0919H21.9969C22.3987 20.0919 22.7781 20.1812 22.7781 20.6725C22.7781 21.186 22.3763 21.2083 21.9857 21.2083Z" fill="#E60000"/>
<path d="M0.466829 17.8255H-0.533171V18.8255H0.466829V17.8255ZM35.078 17.8144L35.079 18.8144L36.078 18.8134V17.8144H35.078ZM15.3113 13.1142H14.3113V14.8475L15.8119 13.9799L15.3113 13.1142ZM16.7237 12.2973L16.2229 11.4317L16.7237 12.2973ZM15.3113 6.54948L15.8147 5.68539L14.3113 4.80967V6.54948H15.3113ZM18.9126 8.63207L19.4118 7.7656V7.7656L18.9126 8.63207ZM20.9924 9.83182L21.4914 10.6984L22.9934 9.83366L21.493 8.96611L20.9924 9.83182ZM29.341 22.9835V21.9835H27.8739L28.4102 23.3491L29.341 22.9835ZM29.6771 23.8186L30.6032 23.4412L30.6032 23.4412L29.6771 23.8186ZM33.6604 22.9723L33.6684 23.9723L33.6751 23.9722L33.6604 22.9723ZM35.0332 21.8559L34.035 21.7965L34.0344 21.8068L35.0332 21.8559ZM35.0529 19.8952L36.0528 19.8808V19.8808L35.0529 19.8952ZM35.0444 19.009H36.0444V18.009H35.0444V19.009ZM0.455566 19.009V18.009H-0.544434V19.009H0.455566ZM6.18131 22.9723L7.11064 23.3416L7.65467 21.9723H6.18131V22.9723ZM5.18821 25.4502L4.26059 25.0767L4.26059 25.0767L5.18821 25.4502ZM5.18795 25.4508L4.26033 25.0773L4.25582 25.0885L4.25159 25.0998L5.18795 25.4508ZM5.44466 26.3328L5.80374 25.3995L5.79587 25.3965L5.44466 26.3328ZM6.23711 25.8527L7.16362 26.229L7.16389 26.2284L6.23711 25.8527ZM6.53513 25.1288L7.4588 25.512L7.4588 25.512L6.53513 25.1288ZM7.23047 23.3742L6.29544 23.0197L6.29243 23.0276L6.28955 23.0356L7.23047 23.3742ZM7.84434 22.9723L7.84603 21.9723H7.84434V22.9723ZM27.7003 22.9723V21.9723L27.6986 21.9723L27.7003 22.9723ZM28.303 23.3966L27.3612 23.7328L27.3641 23.741L27.3672 23.7491L28.303 23.3966ZM29.0988 25.3843L30.0232 25.003L30.0232 25.003L29.0988 25.3843ZM29.2182 25.6741L28.2935 26.0548L28.3003 26.0714L28.3078 26.0878L29.2182 25.6741ZM29.3745 26.0314L30.287 25.6224L30.2849 25.6177L29.3745 26.0314ZM30.0888 26.3217L29.5221 25.4976L29.5107 25.5057L30.0888 26.3217ZM30.3567 25.6071L29.4055 25.9159L29.408 25.9233L30.3567 25.6071ZM16.3364 21.2059L16.3391 20.2059H16.3391L16.3364 21.2059ZM13.5143 21.2083V22.2084L13.5222 22.2083L13.5143 21.2083ZM12.7553 20.6836L11.7556 20.7063L11.7556 20.7069L12.7553 20.6836ZM1.46683 17.8255V17.3455H-0.533171V17.8255H1.46683ZM35.077 16.8144C23.5368 16.8255 12.0412 16.8255 0.466829 16.8255V18.8255C12.041 18.8255 23.5376 18.8255 35.079 18.8144L35.077 16.8144ZM34.078 17.3343V17.8144H36.078V17.3343H34.078ZM34.078 2.31817V17.3343H36.078V2.31817H34.078ZM33.5377 1.7998C33.9526 1.7998 34.0239 1.89371 34.0064 1.87639C33.9864 1.85662 34.078 1.91916 34.078 2.31817H36.078C36.078 1.66772 35.9352 0.971079 35.4129 0.454491C34.8931 -0.0596508 34.1943 -0.200195 33.5377 -0.200195V1.7998ZM2.00709 1.7998H33.5377V-0.200195H2.00709V1.7998ZM1.46683 2.32933C1.46683 1.91644 1.55942 1.85259 1.53817 1.87384C1.51704 1.89498 1.58372 1.7998 2.00709 1.7998V-0.200195C1.34781 -0.200195 0.644361 -0.0609192 0.123761 0.459827C-0.396958 0.980691 -0.533171 1.6816 -0.533171 2.32933H1.46683ZM1.46683 17.3455V2.32933H-0.533171V17.3455H1.46683ZM15.8119 13.9799C16.2879 13.7046 16.7579 13.4328 17.2244 13.1629L16.2229 11.4317C15.7564 11.7016 15.2866 11.9733 14.8108 12.2484L15.8119 13.9799ZM14.3113 6.54948V13.1142H16.3113V6.54948H14.3113ZM19.4118 7.7656C18.2081 7.07203 17.0203 6.38765 15.8147 5.68539L14.808 7.41356C16.0184 8.11861 17.2103 8.80534 18.4134 9.49854L19.4118 7.7656ZM21.493 8.96611C20.7906 8.55999 20.0986 8.1613 19.4118 7.7656L18.4134 9.49854C19.1004 9.89436 19.791 10.2923 20.4919 10.6975L21.493 8.96611ZM17.2244 13.1629C18.6509 12.3377 20.0459 11.5307 21.4914 10.6984L20.4935 8.96519C19.0459 9.79863 17.6491 10.6066 16.2229 11.4317L17.2244 13.1629ZM28.4102 23.3491C28.5258 23.6434 28.6411 23.9262 28.7511 24.1961L30.6032 23.4412C30.4925 23.1697 30.382 22.8985 30.2718 22.6179L28.4102 23.3491ZM29.3418 21.9835H29.341V23.9835H29.3418V21.9835ZM33.6524 21.9724C32.2622 21.9835 30.849 21.9835 29.3418 21.9835V23.9835C30.8475 23.9835 32.2688 23.9835 33.6684 23.9723L33.6524 21.9724ZM34.0344 21.8068C34.0329 21.8378 34.0266 21.85 34.0252 21.8526C34.0234 21.856 34.0179 21.8657 33.9996 21.8802C33.9597 21.9116 33.8499 21.9694 33.6457 21.9724L33.6751 23.9722C34.7687 23.9561 35.9641 23.286 36.032 21.905L34.0344 21.8068ZM34.053 19.9097C34.0626 20.575 34.071 21.1914 34.035 21.7965L36.0315 21.9153C36.0726 21.224 36.0622 20.5333 36.0528 19.8808L34.053 19.9097ZM34.0444 19.009C34.0444 19.3139 34.0488 19.6165 34.053 19.9097L36.0528 19.8808C36.0485 19.5853 36.0444 19.2971 36.0444 19.009H34.0444ZM0.455566 20.009H35.0444V18.009H0.455566V20.009ZM1.45557 21.3758V19.009H-0.544434V21.3758H1.45557ZM2.04047 21.9723C1.82616 21.9723 1.69274 21.9492 1.61501 21.9253C1.57815 21.914 1.55769 21.9038 1.5483 21.8983C1.54355 21.8956 1.54095 21.8937 1.53988 21.8929C1.5393 21.8925 1.53897 21.8922 1.53882 21.8921C1.53868 21.8919 1.53861 21.8919 1.53859 21.8918C1.53856 21.8918 1.53848 21.8917 1.53831 21.8915C1.53814 21.8913 1.5378 21.8909 1.53729 21.8903C1.53633 21.889 1.53427 21.8861 1.53133 21.881C1.5255 21.8707 1.51485 21.8492 1.50326 21.8109C1.47886 21.7304 1.45557 21.5937 1.45557 21.3758H-0.544434C-0.544434 22.0478 -0.409548 22.7691 0.120351 23.302C0.65163 23.8363 1.37186 23.9723 2.04047 23.9723V21.9723ZM6.18131 21.9723H2.04047V23.9723H6.18131V21.9723ZM6.11584 25.8237C6.43933 25.0203 6.76376 24.2146 7.11064 23.3416L5.25198 22.6031C4.90704 23.4712 4.58427 24.2728 4.26059 25.0767L6.11584 25.8237ZM6.11558 25.8243L6.11584 25.8237L4.26059 25.0767L4.26033 25.0773L6.11558 25.8243ZM5.79587 25.3965C5.79891 25.3977 5.86916 25.4248 5.94602 25.5116C6.02866 25.6049 6.07124 25.7133 6.08578 25.803C6.09825 25.8799 6.08719 25.9229 6.08975 25.91C6.09205 25.8983 6.10041 25.8656 6.12431 25.8019L4.25159 25.0998C4.17859 25.2945 4.04118 25.689 4.11155 26.123C4.1512 26.3676 4.25517 26.619 4.44872 26.8376C4.6365 27.0496 4.86719 27.1842 5.09345 27.2691L5.79587 25.3965ZM5.31061 25.4765C5.28698 25.5347 5.27176 25.5617 5.2669 25.5695C5.26151 25.578 5.28239 25.5411 5.34117 25.496C5.40872 25.4442 5.50636 25.3976 5.62148 25.3848C5.72975 25.3728 5.79718 25.397 5.80373 25.3995L5.0856 27.2661C5.57965 27.4562 6.11761 27.421 6.55825 27.0831C6.90695 26.8157 7.07827 26.4392 7.16362 26.229L5.31061 25.4765ZM5.61146 24.7456C5.51177 24.9859 5.41021 25.2307 5.31034 25.4771L7.16389 26.2284C7.26018 25.9908 7.3586 25.7535 7.4588 25.512L5.61146 24.7456ZM6.28955 23.0356C6.08591 23.6015 5.85425 24.1603 5.61146 24.7456L7.4588 25.512C7.69854 24.9341 7.94886 24.3312 8.17139 23.7129L6.28955 23.0356ZM7.84434 21.9723C7.62721 21.9723 7.27615 21.9924 6.93854 22.1999C6.57946 22.4205 6.39815 22.7488 6.29544 23.0197L8.1655 23.7288C8.18556 23.6759 8.14935 23.8033 7.98559 23.9039C7.84331 23.9913 7.73779 23.9723 7.84434 23.9723V21.9723ZM27.6986 21.9723C21.0811 21.9835 14.4635 21.9835 7.84603 21.9723L7.84265 23.9723C14.4624 23.9835 21.0822 23.9835 27.702 23.9723L27.6986 21.9723ZM29.2448 23.0603C29.1619 22.8281 29.0087 22.4957 28.672 22.2544C28.3329 22.0114 27.9642 21.9723 27.7003 21.9723V23.9723C27.7824 23.9723 27.6592 23.9891 27.507 23.8801C27.3573 23.7728 27.3325 23.6524 27.3612 23.7328L29.2448 23.0603ZM30.0232 25.003C29.7499 24.3404 29.4857 23.6994 29.2388 23.0441L27.3672 23.7491C27.6267 24.4381 27.9029 25.1074 28.1743 25.7656L30.0232 25.003ZM30.1429 25.2935C30.1029 25.1963 30.063 25.0994 30.0232 25.003L28.1743 25.7656C28.2141 25.8621 28.2538 25.9584 28.2935 26.0548L30.1429 25.2935ZM30.2155 25.4589C30.1909 25.4016 30.1617 25.3332 30.1286 25.2604L28.3078 26.0878C28.3305 26.1378 28.3515 26.1867 28.3772 26.2466L30.2155 25.4589ZM30.2849 25.6177C30.2622 25.5677 30.2412 25.5188 30.2155 25.4589L28.3772 26.2466C28.4017 26.3039 28.431 26.3723 28.4641 26.4451L30.2849 25.6177ZM29.5107 25.5057C29.5717 25.4624 29.6646 25.4192 29.7828 25.4071C29.9002 25.3951 30.0061 25.4176 30.0881 25.4537C30.2414 25.5211 30.2849 25.6177 30.287 25.6224L28.4619 26.4403C28.6091 26.7688 28.8758 27.1054 29.2831 27.2845C29.7329 27.4823 30.2474 27.4349 30.6669 27.1376L29.5107 25.5057ZM29.408 25.9233C29.3616 25.7842 29.3732 25.6847 29.3753 25.6671C29.3787 25.6389 29.3833 25.6298 29.3812 25.6354C29.3793 25.6403 29.3794 25.6376 29.388 25.6249C29.3916 25.6195 29.4305 25.5607 29.5222 25.4977L30.6554 27.1456C30.9837 26.9199 31.1626 26.5757 31.2484 26.352C31.3286 26.1432 31.4496 25.7239 31.3054 25.291L29.408 25.9233ZM28.7511 24.1961C29.0032 24.8146 29.2253 25.3605 29.4055 25.9159L31.3078 25.2984C31.1011 24.6615 30.8503 24.0474 30.6032 23.4412L28.7511 24.1961ZM17.7444 22.2083H21.9857V20.2083H17.7444V22.2083ZM16.3338 22.2059C16.8036 22.2071 17.2745 22.2083 17.7444 22.2083V20.2083C17.2776 20.2083 16.8093 20.2071 16.3391 20.2059L16.3338 22.2059ZM13.5222 22.2083C14.454 22.2009 15.3916 22.2034 16.3338 22.2059L16.3391 20.2059C15.3987 20.2034 14.4505 20.2009 13.5063 20.2084L13.5222 22.2083ZM11.7556 20.7069C11.7613 20.9531 11.8149 21.222 11.9625 21.4739C12.1145 21.7331 12.3276 21.9084 12.5458 22.0186C12.9244 22.2098 13.3372 22.2083 13.5143 22.2083V20.2083C13.4335 20.2083 13.3912 20.2055 13.3687 20.2026C13.3447 20.1994 13.3827 20.2007 13.4475 20.2334C13.5248 20.2725 13.62 20.3466 13.6879 20.4624C13.7515 20.5708 13.7549 20.6542 13.755 20.6604L11.7556 20.7069ZM13.5254 19.0919C13.2806 19.0919 12.8501 19.113 12.4618 19.3491C11.9689 19.6488 11.7432 20.16 11.7556 20.7063L13.755 20.6609C13.7551 20.663 13.756 20.734 13.7065 20.8326C13.6536 20.938 13.5738 21.0137 13.5008 21.058C13.4379 21.0963 13.3975 21.1011 13.4112 21.0986C13.4235 21.0963 13.4586 21.0919 13.5254 21.0919V19.0919ZM21.9969 19.0919H13.5254V21.0919H21.9969V19.0919ZM23.7781 20.6725C23.7781 20.4209 23.7291 20.1521 23.5923 19.8991C23.4526 19.6406 23.252 19.4554 23.038 19.3318C22.6522 19.1092 22.2299 19.0919 21.9969 19.0919V21.0919C22.0643 21.0919 22.1013 21.096 22.1167 21.0987C22.1336 21.1016 22.0976 21.0983 22.0383 21.0641C21.9694 21.0243 21.8888 20.9536 21.8328 20.8499C21.7798 20.7518 21.7781 20.6784 21.7781 20.6725H23.7781ZM21.9857 22.2083C22.1407 22.2083 22.568 22.2184 22.9519 22.0389C23.179 21.9328 23.4088 21.7556 23.5709 21.4804C23.7278 21.214 23.7781 20.929 23.7781 20.6725H21.7781C21.7781 20.6722 21.7781 20.6503 21.7869 20.6131C21.796 20.5747 21.8139 20.5226 21.8476 20.4653C21.9222 20.3388 22.0271 20.2634 22.105 20.2271C22.1681 20.1975 22.2014 20.1989 22.1657 20.2028C22.1317 20.2065 22.0806 20.2083 21.9857 20.2083V22.2083Z" fill="#E60000" mask="url(#path-1-inside-1_167_9973)"/>
</g>
<defs>
<filter id="filter0_b_167_9973" x="-11.5444" y="-11.2002" width="58.6226" height="49.604" filterUnits="userSpaceOnUse" color-interpolation-filters="sRGB">
<feFlood flood-opacity="0" result="BackgroundImageFix"/>
<feGaussianBlur in="BackgroundImageFix" stdDeviation="6"/>
<feComposite in2="SourceAlpha" operator="in" result="effect1_backgroundBlur_167_9973"/>
<feBlend mode="normal" in="SourceGraphic" in2="effect1_backgroundBlur_167_9973" result="shape"/>
</filter>
</defs>
</svg>
