<svg width="37" height="27" viewBox="0 0 37 27" fill="none" xmlns="http://www.w3.org/2000/svg">
<g filter="url(#filter0_b_167_9995)">
<mask id="path-1-inside-1_167_9995" fill="white">
<path fill-rule="evenodd" clip-rule="evenodd" d="M17.3467 4.68811H19.7196C19.7196 4.31576 19.7223 3.95162 19.725 3.59245C19.7303 2.88862 19.7354 2.20387 19.7196 1.51388C19.6956 0.891009 19.1923 0.435837 18.5931 0.399902C17.9939 0.375946 17.3947 0.795184 17.3587 1.39409C17.3252 2.15562 17.3327 2.91714 17.3402 3.68683C17.3435 4.01885 17.3467 4.35239 17.3467 4.68811ZM1.22868 16.3832C0.856077 17.6244 0.484408 18.8626 0.533158 20.1879C0.533158 20.2678 0.531827 20.3476 0.530495 20.4275C0.527832 20.5872 0.525169 20.7469 0.533158 20.9066C0.796807 25.075 4.76352 27.7701 8.73023 26.4525C10.4919 25.8656 11.7502 24.6798 12.4812 22.9789C13.1523 21.4337 14.2309 20.2957 15.8128 19.7328C17.4186 19.1578 19.0844 19.1698 20.7143 19.5651C22.4999 20.0083 23.6503 21.2181 24.3933 22.883C25.6277 25.674 28.7196 27.2671 31.5598 26.6083C34.9752 25.8177 37.2282 22.2362 36.3294 18.8464C35.5505 15.8758 34.7116 12.9291 33.7768 10.0064C32.3148 5.43076 26.4306 3.59809 22.8474 6.88013C22.7036 7.01189 22.4519 7.09573 22.2602 7.09573C19.7435 7.10771 17.2269 7.10771 14.7103 7.09573C14.4945 7.09573 14.2309 7.01189 14.0751 6.86815C10.396 3.5382 4.38003 5.49065 3.01385 10.246C2.88502 10.6862 2.75544 11.1264 2.62586 11.5666C2.23713 12.8872 1.8484 14.2078 1.4799 15.5284C1.39947 15.8142 1.31405 16.0988 1.22868 16.3832ZM25.433 14.217C25.5667 14.0876 25.7129 13.946 25.8794 13.7796C25.7517 13.6662 25.6297 13.564 25.514 13.4671C25.3364 13.3183 25.1736 13.182 25.0285 13.0369C24.4173 12.426 24.3814 11.7073 24.8967 11.1923C25.412 10.6772 26.131 10.7371 26.7422 11.348C26.9414 11.5471 27.133 11.7536 27.3647 12.0033C27.4257 12.0691 27.4896 12.1379 27.5571 12.2104C27.653 12.104 27.7436 12.0007 27.8314 11.9005C28.0401 11.6626 28.2331 11.4425 28.4439 11.2402C28.9832 10.7251 29.6783 10.7132 30.1577 11.1803C30.661 11.6714 30.649 12.3901 30.1217 12.9411C29.9206 13.1509 29.7003 13.3416 29.4375 13.5689C29.3403 13.6531 29.2371 13.7424 29.127 13.8395C29.2771 13.9798 29.4193 14.1044 29.5545 14.2229C29.754 14.3978 29.9383 14.5593 30.1097 14.7378C30.649 15.3008 30.649 16.0195 30.1577 16.4986C29.6543 16.9897 28.9593 16.9658 28.408 16.4148C28.2292 16.2283 28.0655 16.0267 27.8842 15.8034C27.7861 15.6825 27.6828 15.5552 27.5691 15.4206C27.4282 15.5703 27.305 15.7054 27.1914 15.8301C26.9958 16.0447 26.8283 16.2286 26.6463 16.4028C26.0711 16.9538 25.388 16.9897 24.8847 16.4986C24.3694 15.9956 24.3933 15.2769 24.9566 14.6899C25.1058 14.534 25.2588 14.3858 25.433 14.217ZM8.49709 12.6508C8.63645 12.6522 8.78092 12.6536 8.93396 12.6536C8.93396 12.5308 8.93313 12.4163 8.93234 12.3077C8.93014 12.003 8.92827 11.7447 8.94594 11.4798C8.96991 10.7611 9.47324 10.246 10.1443 10.258C10.8035 10.258 11.3068 10.773 11.3308 11.5037C11.3386 11.7385 11.3362 11.9733 11.3336 12.2281C11.3322 12.3633 11.3308 12.5041 11.3308 12.6536C11.4694 12.6536 11.6038 12.6522 11.7355 12.6509C11.9909 12.6483 12.2361 12.6457 12.4812 12.6536C13.2003 12.6776 13.7156 13.1807 13.7156 13.8395C13.7156 14.5103 13.2003 15.0133 12.4812 15.0373C12.2482 15.0451 12.0202 15.0428 11.7646 15.0402C11.6258 15.0388 11.479 15.0373 11.3188 15.0373C11.3188 15.1728 11.3202 15.3027 11.3216 15.4289C11.3242 15.6708 11.3267 15.899 11.3188 16.1273C11.3068 16.9059 10.8394 17.421 10.1443 17.4329C9.43729 17.4449 8.94594 16.9179 8.93396 16.1034V15.0373C8.78041 15.0373 8.63548 15.0387 8.49618 15.0401C8.23325 15.0427 7.99039 15.0451 7.74754 15.0373C7.05247 15.0014 6.54914 14.5103 6.53715 13.8754C6.51319 13.2166 7.01651 12.6896 7.73556 12.6536C7.98669 12.6458 8.23268 12.6482 8.49709 12.6508Z"/>
</mask>
<path fill-rule="evenodd" clip-rule="evenodd" d="M17.3467 4.68811H19.7196C19.7196 4.31576 19.7223 3.95162 19.725 3.59245C19.7303 2.88862 19.7354 2.20387 19.7196 1.51388C19.6956 0.891009 19.1923 0.435837 18.5931 0.399902C17.9939 0.375946 17.3947 0.795184 17.3587 1.39409C17.3252 2.15562 17.3327 2.91714 17.3402 3.68683C17.3435 4.01885 17.3467 4.35239 17.3467 4.68811ZM1.22868 16.3832C0.856077 17.6244 0.484408 18.8626 0.533158 20.1879C0.533158 20.2678 0.531827 20.3476 0.530495 20.4275C0.527832 20.5872 0.525169 20.7469 0.533158 20.9066C0.796807 25.075 4.76352 27.7701 8.73023 26.4525C10.4919 25.8656 11.7502 24.6798 12.4812 22.9789C13.1523 21.4337 14.2309 20.2957 15.8128 19.7328C17.4186 19.1578 19.0844 19.1698 20.7143 19.5651C22.4999 20.0083 23.6503 21.2181 24.3933 22.883C25.6277 25.674 28.7196 27.2671 31.5598 26.6083C34.9752 25.8177 37.2282 22.2362 36.3294 18.8464C35.5505 15.8758 34.7116 12.9291 33.7768 10.0064C32.3148 5.43076 26.4306 3.59809 22.8474 6.88013C22.7036 7.01189 22.4519 7.09573 22.2602 7.09573C19.7435 7.10771 17.2269 7.10771 14.7103 7.09573C14.4945 7.09573 14.2309 7.01189 14.0751 6.86815C10.396 3.5382 4.38003 5.49065 3.01385 10.246C2.88502 10.6862 2.75544 11.1264 2.62586 11.5666C2.23713 12.8872 1.8484 14.2078 1.4799 15.5284C1.39947 15.8142 1.31405 16.0988 1.22868 16.3832ZM25.433 14.217C25.5667 14.0876 25.7129 13.946 25.8794 13.7796C25.7517 13.6662 25.6297 13.564 25.514 13.4671C25.3364 13.3183 25.1736 13.182 25.0285 13.0369C24.4173 12.426 24.3814 11.7073 24.8967 11.1923C25.412 10.6772 26.131 10.7371 26.7422 11.348C26.9414 11.5471 27.133 11.7536 27.3647 12.0033C27.4257 12.0691 27.4896 12.1379 27.5571 12.2104C27.653 12.104 27.7436 12.0007 27.8314 11.9005C28.0401 11.6626 28.2331 11.4425 28.4439 11.2402C28.9832 10.7251 29.6783 10.7132 30.1577 11.1803C30.661 11.6714 30.649 12.3901 30.1217 12.9411C29.9206 13.1509 29.7003 13.3416 29.4375 13.5689C29.3403 13.6531 29.2371 13.7424 29.127 13.8395C29.2771 13.9798 29.4193 14.1044 29.5545 14.2229C29.754 14.3978 29.9383 14.5593 30.1097 14.7378C30.649 15.3008 30.649 16.0195 30.1577 16.4986C29.6543 16.9897 28.9593 16.9658 28.408 16.4148C28.2292 16.2283 28.0655 16.0267 27.8842 15.8034C27.7861 15.6825 27.6828 15.5552 27.5691 15.4206C27.4282 15.5703 27.305 15.7054 27.1914 15.8301C26.9958 16.0447 26.8283 16.2286 26.6463 16.4028C26.0711 16.9538 25.388 16.9897 24.8847 16.4986C24.3694 15.9956 24.3933 15.2769 24.9566 14.6899C25.1058 14.534 25.2588 14.3858 25.433 14.217ZM8.49709 12.6508C8.63645 12.6522 8.78092 12.6536 8.93396 12.6536C8.93396 12.5308 8.93313 12.4163 8.93234 12.3077C8.93014 12.003 8.92827 11.7447 8.94594 11.4798C8.96991 10.7611 9.47324 10.246 10.1443 10.258C10.8035 10.258 11.3068 10.773 11.3308 11.5037C11.3386 11.7385 11.3362 11.9733 11.3336 12.2281C11.3322 12.3633 11.3308 12.5041 11.3308 12.6536C11.4694 12.6536 11.6038 12.6522 11.7355 12.6509C11.9909 12.6483 12.2361 12.6457 12.4812 12.6536C13.2003 12.6776 13.7156 13.1807 13.7156 13.8395C13.7156 14.5103 13.2003 15.0133 12.4812 15.0373C12.2482 15.0451 12.0202 15.0428 11.7646 15.0402C11.6258 15.0388 11.479 15.0373 11.3188 15.0373C11.3188 15.1728 11.3202 15.3027 11.3216 15.4289C11.3242 15.6708 11.3267 15.899 11.3188 16.1273C11.3068 16.9059 10.8394 17.421 10.1443 17.4329C9.43729 17.4449 8.94594 16.9179 8.93396 16.1034V15.0373C8.78041 15.0373 8.63548 15.0387 8.49618 15.0401C8.23325 15.0427 7.99039 15.0451 7.74754 15.0373C7.05247 15.0014 6.54914 14.5103 6.53715 13.8754C6.51319 13.2166 7.01651 12.6896 7.73556 12.6536C7.98669 12.6458 8.23268 12.6482 8.49709 12.6508Z" fill="#E60000"/>
<path d="M19.7196 4.68811V5.68811H20.7196V4.68811H19.7196ZM17.3467 4.68811H16.3467V5.68811H17.3467V4.68811ZM19.725 3.59245L18.725 3.58493V3.58493L19.725 3.59245ZM19.7196 1.51388L20.7193 1.49088L20.7191 1.48315L20.7188 1.47543L19.7196 1.51388ZM18.5931 0.399902L18.6529 -0.598304L18.643 -0.598901L18.633 -0.599299L18.5931 0.399902ZM17.3587 1.39409L16.3605 1.33417L16.36 1.34216L16.3597 1.35016L17.3587 1.39409ZM17.3402 3.68683L18.3402 3.67704V3.67703L17.3402 3.68683ZM0.533158 20.1879H1.53316V20.1695L1.53248 20.1512L0.533158 20.1879ZM1.22868 16.3832L2.18645 16.6707L1.22868 16.3832ZM0.530495 20.4275L-0.469366 20.4108L0.530495 20.4275ZM0.533158 20.9066L-0.46568 20.9566L-0.464848 20.9697L0.533158 20.9066ZM8.73023 26.4525L9.04546 27.4016L9.04632 27.4013L8.73023 26.4525ZM12.4812 22.9789L11.564 22.5805L11.5625 22.584L12.4812 22.9789ZM15.8128 19.7328L16.1481 20.6749L16.1499 20.6742L15.8128 19.7328ZM20.7143 19.5651L20.9551 18.5945L20.9499 18.5932L20.7143 19.5651ZM24.3933 22.883L25.3079 22.4785L25.3065 22.4755L24.3933 22.883ZM31.5598 26.6083L31.3343 25.634L31.3338 25.6341L31.5598 26.6083ZM36.3294 18.8464L35.3621 19.1L35.3628 19.1027L36.3294 18.8464ZM33.7768 10.0064L32.8243 10.3108L32.8244 10.3111L33.7768 10.0064ZM22.8474 6.88013L22.172 6.14271L22.1719 6.14281L22.8474 6.88013ZM22.2602 7.09573V6.09572L22.2554 6.09575L22.2602 7.09573ZM14.7103 7.09573L14.715 6.09573H14.7103V7.09573ZM14.0751 6.86815L14.7532 6.13315L14.7462 6.12674L14.0751 6.86815ZM3.01385 10.246L3.97361 10.5269L3.97497 10.5221L3.01385 10.246ZM2.62586 11.5666L1.66656 11.2842L1.66656 11.2842L2.62586 11.5666ZM1.4799 15.5284L2.44252 15.7993L2.4431 15.7972L1.4799 15.5284ZM25.8794 13.7796L26.5863 14.4869L27.3368 13.7368L26.5435 13.032L25.8794 13.7796ZM25.433 14.217L24.7373 13.4988L24.7373 13.4988L25.433 14.217ZM25.514 13.4671L26.1561 12.7004L26.1561 12.7004L25.514 13.4671ZM25.0285 13.0369L25.7354 12.3297L25.7354 12.3297L25.0285 13.0369ZM24.8967 11.1923L24.1897 10.485V10.485L24.8967 11.1923ZM26.7422 11.348L27.4492 10.6407L26.7422 11.348ZM27.3647 12.0033L28.0977 11.3231L28.0977 11.3231L27.3647 12.0033ZM27.5571 12.2104L26.8254 12.892L27.5696 13.691L28.3003 12.8796L27.5571 12.2104ZM27.8314 11.9005L27.0796 11.2411L27.0796 11.2411L27.8314 11.9005ZM28.4439 11.2402L27.7533 10.517L27.7516 10.5186L28.4439 11.2402ZM30.1577 11.1803L30.856 10.4646L30.8556 10.4641L30.1577 11.1803ZM30.1217 12.9411L30.8435 13.6332L30.8442 13.6325L30.1217 12.9411ZM29.4375 13.5689L28.7831 12.8128L28.7831 12.8128L29.4375 13.5689ZM29.127 13.8395L28.4656 13.0895L27.6397 13.8178L28.4441 14.5699L29.127 13.8395ZM29.5545 14.2229L30.2136 13.4709V13.4709L29.5545 14.2229ZM30.1097 14.7378L30.8319 14.0461L30.8309 14.0451L30.1097 14.7378ZM30.1577 16.4986L29.4595 15.7827L29.4593 15.7829L30.1577 16.4986ZM28.408 16.4148L27.6862 17.1069L27.6935 17.1145L27.7011 17.1221L28.408 16.4148ZM27.8842 15.8034L27.1079 16.4337H27.1079L27.8842 15.8034ZM27.5691 15.4206L28.3333 14.7755L27.6099 13.9186L26.8411 14.7351L27.5691 15.4206ZM27.1914 15.8301L27.9305 16.5037L27.9305 16.5037L27.1914 15.8301ZM26.6463 16.4028L25.9546 15.6807H25.9546L26.6463 16.4028ZM24.8847 16.4986L24.1861 17.2142L24.1863 17.2144L24.8847 16.4986ZM24.9566 14.6899L25.6781 15.3823L25.6791 15.3813L24.9566 14.6899ZM8.93396 12.6536V13.6536H9.93396V12.6536H8.93396ZM8.49709 12.6508L8.48721 13.6508H8.48722L8.49709 12.6508ZM8.93234 12.3077L9.93232 12.3005V12.3005L8.93234 12.3077ZM8.94594 11.4798L9.94372 11.5463L9.94483 11.5297L9.94538 11.5131L8.94594 11.4798ZM10.1443 10.258L10.1265 11.2578L10.1354 11.258H10.1443V10.258ZM11.3308 11.5037L10.3313 11.5365L10.3313 11.5371L11.3308 11.5037ZM11.3336 12.2281L12.3335 12.2383V12.2383L11.3336 12.2281ZM11.3308 12.6536H10.3308V13.6536H11.3308V12.6536ZM11.7355 12.6509L11.7458 13.6508H11.7458L11.7355 12.6509ZM12.4812 12.6536L12.5145 11.6542L12.5135 11.6541L12.4812 12.6536ZM12.4812 15.0373L12.4479 14.0378L12.4479 14.0378L12.4812 15.0373ZM11.7646 15.0402L11.7747 14.0402H11.7746L11.7646 15.0402ZM11.3188 15.0373V14.0373H10.3188V15.0373H11.3188ZM11.3216 15.4289L12.3215 15.418V15.418L11.3216 15.4289ZM11.3188 16.1273L10.3194 16.0928L10.319 16.1024L10.3189 16.1119L11.3188 16.1273ZM10.1443 17.4329L10.1613 18.4328L10.1616 18.4328L10.1443 17.4329ZM8.93396 16.1034H7.93396V16.1107L7.93407 16.1181L8.93396 16.1034ZM8.93396 15.0373H9.93396V14.0373H8.93396V15.0373ZM8.49618 15.0401L8.5061 16.0401H8.5061L8.49618 15.0401ZM7.74754 15.0373L7.69591 16.036L7.70561 16.0365L7.71532 16.0368L7.74754 15.0373ZM6.53715 13.8754L7.53697 13.8565L7.53681 13.8478L7.53649 13.839L6.53715 13.8754ZM7.73556 12.6536L7.70434 11.6541L7.69498 11.6544L7.68564 11.6549L7.73556 12.6536ZM19.7196 3.68811H17.3467V5.68811H19.7196V3.68811ZM18.725 3.58493C18.7223 3.94355 18.7196 4.3114 18.7196 4.68811H20.7196C20.7196 4.32012 20.7223 3.95968 20.725 3.59996L18.725 3.58493ZM18.7198 1.53687C18.7353 2.20907 18.7303 2.87854 18.725 3.58493L20.725 3.59996C20.7302 2.89869 20.7356 2.19868 20.7193 1.49088L18.7198 1.53687ZM18.5332 1.39811C18.5983 1.40201 18.6483 1.42819 18.6785 1.45718C18.7045 1.4822 18.7187 1.51067 18.7203 1.55233L20.7188 1.47543C20.6731 0.286192 19.7113 -0.534834 18.6529 -0.598304L18.5332 1.39811ZM18.3569 1.45402C18.3562 1.46661 18.3519 1.4769 18.3501 1.48003C18.3494 1.48116 18.3552 1.47083 18.3752 1.45542C18.3953 1.43992 18.4238 1.42409 18.4583 1.413C18.4926 1.40198 18.5255 1.398 18.5531 1.3991L18.633 -0.599299C17.6424 -0.638907 16.4375 0.0510857 16.3605 1.33417L18.3569 1.45402ZM18.3402 3.67703C18.3326 2.9028 18.3256 2.16821 18.3577 1.43803L16.3597 1.35016C16.3248 2.14302 16.3328 2.93147 16.3403 3.69662L18.3402 3.67703ZM18.3467 4.68811C18.3467 4.34669 18.3434 4.00827 18.3402 3.67704L16.3403 3.69661C16.3435 4.02942 16.3467 4.35809 16.3467 4.68811H18.3467ZM1.53248 20.1512C1.4908 19.0181 1.8062 17.9374 2.18645 16.6707L0.270897 16.0957C-0.0940472 17.3114 -0.521988 18.7071 -0.466166 20.2247L1.53248 20.1512ZM1.53036 20.4442C1.53166 20.3657 1.53316 20.2775 1.53316 20.1879H-0.466842C-0.466842 20.2581 -0.468011 20.3296 -0.469366 20.4108L1.53036 20.4442ZM1.53191 20.8567C1.52586 20.7358 1.5276 20.6094 1.53036 20.4442L-0.469366 20.4108C-0.471937 20.565 -0.475525 20.758 -0.465593 20.9566L1.53191 20.8567ZM8.415 25.5035C5.07476 26.613 1.7537 24.3618 1.53116 20.8435L-0.464848 20.9697C-0.160082 25.7883 4.45227 28.9273 9.04546 27.4016L8.415 25.5035ZM11.5625 22.584C10.9406 24.0309 9.89683 25.0098 8.41414 25.5038L9.04632 27.4013C11.0869 26.7214 12.5598 25.3287 13.4 23.3737L11.5625 22.584ZM15.4775 18.7906C13.5938 19.461 12.3269 20.824 11.564 22.5805L13.3985 23.3772C13.9778 22.0433 14.8679 21.1305 16.1481 20.6749L15.4775 18.7906ZM20.9499 18.5932C19.1718 18.162 17.3019 18.1375 15.4757 18.7913L16.1499 20.6742C17.5354 20.1782 18.9971 20.1776 20.4786 20.5369L20.9499 18.5932ZM25.3065 22.4755C24.4738 20.6095 23.1155 19.1307 20.9551 18.5945L20.4734 20.5356C21.8842 20.8858 22.8268 21.8266 23.4802 23.2906L25.3065 22.4755ZM31.3338 25.6341C28.9864 26.1786 26.3587 24.8545 25.3079 22.4785L23.4788 23.2875C24.8967 26.4934 28.4528 28.3555 31.7857 27.5824L31.3338 25.6341ZM35.3628 19.1027C36.1109 21.9241 34.2226 24.9655 31.3343 25.634L31.7853 27.5825C35.7279 26.6699 38.3456 22.5484 37.296 18.5901L35.3628 19.1027ZM32.8244 10.3111C33.7526 13.2135 34.5867 16.1427 35.3621 19.1L37.2967 18.5927C36.5143 15.6088 35.6705 12.6448 34.7293 9.70181L32.8244 10.3111ZM23.5228 7.61755C26.5194 4.87283 31.564 6.3665 32.8243 10.3108L34.7294 9.70208C33.0656 4.49502 26.3418 2.32336 22.172 6.14271L23.5228 7.61755ZM22.2602 8.09573C22.6606 8.09573 23.1663 7.94423 23.523 7.61744L22.1719 6.14281C22.2022 6.11496 22.2245 6.10189 22.2309 6.09828C22.2383 6.09412 22.2398 6.09405 22.2356 6.09555C22.234 6.09613 22.2321 6.0967 22.2304 6.09717C22.2287 6.09764 22.2278 6.09781 22.228 6.09776C22.2282 6.09773 22.2305 6.09729 22.2351 6.09683C22.2396 6.09638 22.2481 6.09573 22.2602 6.09573V8.09573ZM14.7055 8.09572C17.2253 8.10772 19.7451 8.10772 22.2649 8.09572L22.2554 6.09575C19.742 6.10771 17.2285 6.10771 14.715 6.09575L14.7055 8.09572ZM13.397 7.60311C13.7765 7.95326 14.3019 8.09573 14.7103 8.09573V6.09573C14.7198 6.09573 14.721 6.09653 14.7151 6.09549C14.7096 6.09452 14.7031 6.09286 14.6976 6.09096C14.6919 6.08897 14.6925 6.08859 14.6994 6.09241C14.7055 6.09587 14.7257 6.10783 14.7532 6.13318L13.397 7.60311ZM3.97497 10.5221C5.15424 6.41736 10.3196 4.81786 13.4041 7.60956L14.7462 6.12674C10.4724 2.25854 3.60582 4.56394 2.05273 9.96988L3.97497 10.5221ZM3.58517 11.849C3.71471 11.4089 3.84451 10.968 3.97359 10.5269L2.05411 9.96513C1.92553 10.4045 1.79618 10.8439 1.66656 11.2842L3.58517 11.849ZM2.4431 15.7972C2.80938 14.4845 3.1961 13.1707 3.58517 11.849L1.66656 11.2842C1.27817 12.6037 0.887421 13.9311 0.516694 15.2596L2.4431 15.7972ZM2.18645 16.6707C2.27141 16.3877 2.35935 16.0948 2.44251 15.7993L0.517279 15.2575C0.439593 15.5336 0.356687 15.8099 0.270897 16.0957L2.18645 16.6707ZM25.1724 13.0723C25.0121 13.2325 24.8712 13.3691 24.7373 13.4988L26.1288 14.9353C26.2623 14.806 26.4136 14.6595 26.5863 14.4869L25.1724 13.0723ZM24.8719 14.2337C24.9887 14.3315 25.1 14.4248 25.2152 14.5272L26.5435 13.032C26.4034 12.9075 26.2707 12.7964 26.1561 12.7004L24.8719 14.2337ZM24.3216 13.7442C24.5035 13.926 24.7015 14.091 24.8719 14.2337L26.1561 12.7004C25.9712 12.5456 25.8438 12.438 25.7354 12.3297L24.3216 13.7442ZM24.1897 10.485C23.7487 10.9258 23.5007 11.5087 23.5423 12.144C23.5827 12.7619 23.888 13.3108 24.3216 13.7442L25.7354 12.3297C25.5578 12.1521 25.5395 12.0363 25.538 12.0134C25.5372 12.0011 25.5386 11.9927 25.5428 11.9822C25.5475 11.9705 25.5618 11.9414 25.6036 11.8996L24.1897 10.485ZM27.4492 10.6407C27.0219 10.2137 26.4801 9.90295 25.8673 9.85143C25.2313 9.79796 24.6393 10.0356 24.1897 10.485L25.6036 11.8996C25.6424 11.8608 25.6674 11.8498 25.6744 11.8472C25.6803 11.8449 25.6864 11.8433 25.6997 11.8444C25.728 11.8468 25.8513 11.8714 26.0353 12.0553L27.4492 10.6407ZM28.0977 11.3231C27.8689 11.0764 27.6641 10.8555 27.4492 10.6407L26.0353 12.0553C26.2187 12.2386 26.3972 12.4308 26.6316 12.6834L28.0977 11.3231ZM28.2889 11.5288C28.2221 11.4572 28.1589 11.389 28.0977 11.3231L26.6316 12.6834C26.6926 12.7492 26.7571 12.8187 26.8254 12.892L28.2889 11.5288ZM27.0796 11.2411C26.9912 11.3419 26.9048 11.4404 26.814 11.5413L28.3003 12.8796C28.4012 12.7675 28.496 12.6594 28.5833 12.5599L27.0796 11.2411ZM27.7516 10.5186C27.5043 10.7559 27.2829 11.0093 27.0796 11.2411L28.5833 12.5599C28.7973 12.3158 28.9619 12.1291 29.1363 11.9618L27.7516 10.5186ZM30.8556 10.4641C30.4322 10.0515 29.8797 9.82488 29.2934 9.84237C28.7129 9.85969 28.1764 10.1129 27.7533 10.517L29.1346 11.9634C29.2507 11.8525 29.3314 11.8421 29.3531 11.8415C29.369 11.841 29.4038 11.842 29.4597 11.8965L30.8556 10.4641ZM30.8442 13.6325C31.2561 13.2021 31.5145 12.6527 31.526 12.0576C31.5376 11.4552 31.2934 10.8913 30.856 10.4646L29.4593 11.8961C29.5252 11.9604 29.5267 12.0014 29.5264 12.0189C29.5259 12.0437 29.5147 12.1291 29.3992 12.2497L30.8442 13.6325ZM30.0919 14.3251C30.3471 14.1043 30.6043 13.8827 30.8435 13.6332L29.3999 12.249C29.2368 12.4191 29.0535 12.5788 28.7831 12.8128L30.0919 14.3251ZM29.7885 14.5895C29.8946 14.4959 29.9943 14.4096 30.0919 14.3251L28.7831 12.8128C28.6862 12.8967 28.5797 12.9888 28.4656 13.0895L29.7885 14.5895ZM30.2136 13.4709C30.0773 13.3514 29.9467 13.2368 29.81 13.109L28.4441 14.5699C28.6075 14.7227 28.7612 14.8574 28.8953 14.9749L30.2136 13.4709ZM30.8309 14.0451C30.6246 13.8303 30.4074 13.6407 30.2136 13.4709L28.8953 14.9749C29.1007 15.1549 29.2519 15.2883 29.3885 15.4305L30.8309 14.0451ZM30.8558 17.2146C31.2882 16.7929 31.5316 16.2316 31.52 15.6304C31.5085 15.0348 31.2497 14.4823 30.8319 14.0461L29.3876 15.4296C29.5091 15.5564 29.5199 15.6447 29.5204 15.669C29.5207 15.6876 29.5185 15.7252 29.4595 15.7827L30.8558 17.2146ZM27.7011 17.1221C28.12 17.5408 28.6579 17.8201 29.2568 17.8465C29.8643 17.8733 30.426 17.6339 30.856 17.2144L29.4593 15.7829C29.4193 15.822 29.3899 15.837 29.3759 15.8426C29.3628 15.8479 29.3538 15.8489 29.3449 15.8485C29.3325 15.8479 29.2473 15.8398 29.1149 15.7075L27.7011 17.1221ZM27.1079 16.4337C27.284 16.6506 27.4738 16.8853 27.6862 17.1069L29.1298 15.7227C28.9846 15.5712 28.847 15.4027 28.6606 15.1731L27.1079 16.4337ZM26.805 16.0656C26.9116 16.1919 27.0091 16.312 27.1079 16.4337L28.6606 15.1731C28.5631 15.053 28.454 14.9186 28.3333 14.7755L26.805 16.0656ZM27.9305 16.5037C28.0445 16.3786 28.1625 16.2491 28.2971 16.1061L26.8411 14.7351C26.6938 14.8914 26.5656 15.0322 26.4523 15.1565L27.9305 16.5037ZM27.3381 17.125C27.5488 16.9231 27.7394 16.7133 27.9305 16.5037L26.4523 15.1565C26.2521 15.3761 26.1077 15.534 25.9546 15.6807L27.3381 17.125ZM24.1863 17.2144C24.6187 17.6363 25.1816 17.873 25.7924 17.8401C26.3877 17.808 26.9185 17.5269 27.3381 17.125L25.9546 15.6807C25.799 15.8298 25.7006 15.8421 25.6847 15.843C25.6758 15.8434 25.6695 15.8425 25.6603 15.8389C25.6502 15.8348 25.6229 15.8218 25.5831 15.7829L24.1863 17.2144ZM24.2351 13.9975C23.819 14.4311 23.5399 14.9807 23.5169 15.5878C23.4934 16.208 23.7425 16.7811 24.1861 17.2142L25.5833 15.7831C25.5431 15.7439 25.528 15.7151 25.5223 15.7015C25.5169 15.6885 25.5149 15.6775 25.5155 15.6636C25.5164 15.6389 25.531 15.5357 25.6781 15.3823L24.2351 13.9975ZM24.7373 13.4988C24.5657 13.665 24.3987 13.8265 24.2341 13.9985L25.6791 15.3813C25.8129 15.2415 25.952 15.1066 26.1288 14.9353L24.7373 13.4988ZM8.93396 11.6536C8.78659 11.6536 8.64689 11.6523 8.50697 11.6509L8.48722 13.6508C8.62601 13.6521 8.77525 13.6536 8.93396 13.6536V11.6536ZM7.93237 12.3149C7.93316 12.4239 7.93396 12.535 7.93396 12.6536H9.93396C9.93396 12.5267 9.9331 12.4087 9.93232 12.3005L7.93237 12.3149ZM7.94816 11.4132C7.9276 11.7214 7.93022 12.0173 7.93237 12.3149L9.93232 12.3005C9.93006 11.9888 9.92894 11.7679 9.94372 11.5463L7.94816 11.4132ZM10.1622 9.25814C8.87918 9.23524 7.9864 10.25 7.9465 11.4464L9.94538 11.5131C9.9498 11.3807 9.99463 11.3173 10.0168 11.2947C10.0351 11.276 10.063 11.2567 10.1265 11.2578L10.1622 9.25814ZM12.3302 11.4709C12.2909 10.2709 11.4103 9.25798 10.1443 9.25798V11.258C10.2023 11.258 10.2321 11.2762 10.2542 11.2992C10.2793 11.3254 10.3267 11.3948 10.3313 11.5365L12.3302 11.4709ZM12.3335 12.2383C12.3361 11.9876 12.3389 11.7307 12.3302 11.4704L10.3313 11.5371C10.3383 11.7463 10.3363 11.9589 10.3336 12.2178L12.3335 12.2383ZM12.3308 12.6536C12.3308 12.51 12.3321 12.3741 12.3335 12.2383L10.3336 12.2178C10.3323 12.3525 10.3308 12.4983 10.3308 12.6536H12.3308ZM11.7252 11.6509C11.5928 11.6523 11.4634 11.6536 11.3308 11.6536V13.6536C11.4753 13.6536 11.6148 13.6522 11.7458 13.6508L11.7252 11.6509ZM12.5135 11.6541C12.2434 11.6454 11.9769 11.6483 11.7252 11.6509L11.7458 13.6508C12.005 13.6482 12.2287 13.646 12.449 13.6531L12.5135 11.6541ZM14.7156 13.8395C14.7156 12.5788 13.7079 11.6939 12.5145 11.6542L12.4479 13.6531C12.5802 13.6575 12.647 13.7024 12.6735 13.728C12.6972 13.7508 12.7156 13.7816 12.7156 13.8395H14.7156ZM12.5145 16.0367C13.7146 15.9968 14.7156 15.1058 14.7156 13.8395H12.7156C12.7156 13.9082 12.6936 13.942 12.671 13.9639C12.6454 13.9888 12.5801 14.0334 12.4479 14.0378L12.5145 16.0367ZM11.7545 16.0401C12.0062 16.0427 12.2561 16.0454 12.5145 16.0367L12.4479 14.0378C12.2403 14.0448 12.0342 14.0428 11.7747 14.0402L11.7545 16.0401ZM11.3188 16.0373C11.4732 16.0373 11.6153 16.0387 11.7545 16.0401L11.7746 14.0402C11.6364 14.0388 11.4847 14.0373 11.3188 14.0373V16.0373ZM12.3215 15.418C12.3201 15.2912 12.3188 15.1666 12.3188 15.0373H10.3188C10.3188 15.1791 10.3203 15.3142 10.3216 15.4397L12.3215 15.418ZM12.3182 16.1618C12.327 15.907 12.3241 15.6558 12.3215 15.418L10.3216 15.4397C10.3243 15.6857 10.3263 15.8911 10.3194 16.0928L12.3182 16.1618ZM10.1616 18.4328C10.7656 18.4224 11.3261 18.1856 11.7304 17.7373C12.1268 17.2977 12.3097 16.7268 12.3187 16.1427L10.3189 16.1119C10.3159 16.3065 10.2591 16.3824 10.2451 16.3979C10.237 16.4069 10.2291 16.4126 10.2179 16.4175C10.2061 16.4227 10.1783 16.4322 10.1271 16.4331L10.1616 18.4328ZM7.93407 16.1181C7.94293 16.7204 8.13202 17.3072 8.54131 17.7538C8.95974 18.2103 9.54031 18.4433 10.1613 18.4328L10.1274 16.4331C10.078 16.4339 10.052 16.4254 10.0419 16.4212C10.0323 16.4172 10.0246 16.4121 10.0157 16.4024C9.99954 16.3848 9.93697 16.3009 9.93385 16.0886L7.93407 16.1181ZM7.93396 15.0373V16.1034H9.93396V15.0373H7.93396ZM8.5061 16.0401C8.64595 16.0387 8.78609 16.0373 8.93396 16.0373V14.0373C8.77472 14.0373 8.62501 14.0388 8.48627 14.0402L8.5061 16.0401ZM7.71532 16.0368C7.98288 16.0454 8.24709 16.0426 8.5061 16.0401L8.48627 14.0402C8.2194 14.0428 7.99791 14.0448 7.77976 14.0378L7.71532 16.0368ZM5.53733 13.8943C5.56038 15.1155 6.54039 15.9762 7.69591 16.036L7.79917 14.0386C7.67585 14.0323 7.60947 13.9892 7.58043 13.9612C7.55374 13.9355 7.53788 13.9047 7.53697 13.8565L5.53733 13.8943ZM7.68564 11.6549C6.4763 11.7153 5.49198 12.6519 5.53781 13.9118L7.53649 13.839C7.53447 13.7836 7.55145 13.7519 7.57442 13.7283C7.59926 13.7028 7.66107 13.6586 7.78547 13.6524L7.68564 11.6549ZM8.50697 11.6509C8.24604 11.6483 7.97945 11.6455 7.70434 11.6541L7.76677 13.6531C7.99392 13.646 8.21932 13.6481 8.48721 13.6508L8.50697 11.6509Z" fill="#E60000" mask="url(#path-1-inside-1_167_9995)"/>
</g>
<defs>
<filter id="filter0_b_167_9995" x="-11.4722" y="-11.6011" width="60" height="50.3901" filterUnits="userSpaceOnUse" color-interpolation-filters="sRGB">
<feFlood flood-opacity="0" result="BackgroundImageFix"/>
<feGaussianBlur in="BackgroundImageFix" stdDeviation="6"/>
<feComposite in2="SourceAlpha" operator="in" result="effect1_backgroundBlur_167_9995"/>
<feBlend mode="normal" in="SourceGraphic" in2="effect1_backgroundBlur_167_9995" result="shape"/>
</filter>
</defs>
</svg>
