<svg width="38" height="27" viewBox="0 0 38 27" fill="none" xmlns="http://www.w3.org/2000/svg">
<g clip-path="url(#clip0_167_9984)">
<g filter="url(#filter0_b_167_9984)">
<mask id="path-1-inside-1_167_9984" fill="white">
<path fill-rule="evenodd" clip-rule="evenodd" d="M32.1367 0.200195H19.1307H6.13687C4.81795 0.200195 4.45159 0.56565 4.45159 1.84474V15.6102C4.45159 16.8771 4.83017 17.2547 6.07581 17.2547H32.1367C33.3823 17.2547 33.7609 16.8771 33.7609 15.6102V1.84474C33.7609 0.577832 33.3823 0.200195 32.1367 0.200195ZM2.37551 27.0002H19.0452H35.8492C36.1423 27.0002 36.4598 26.988 36.7407 26.8906C37.3879 26.6713 37.5833 26.1353 37.2536 25.5384C36.0937 23.4192 34.9215 21.3121 33.7494 19.2051L33.7487 19.2038C33.4678 18.7166 33.0648 18.4729 32.503 18.4729H5.69723C5.13547 18.4729 4.73247 18.7166 4.4638 19.2038L4.46378 19.2039C3.29141 21.3113 2.11905 23.4188 0.958897 25.5384C0.629167 26.1353 0.836775 26.6713 1.48402 26.8906C1.75269 26.988 2.07021 27.0002 2.37551 27.0002ZM19.8634 24.5665C19.6069 24.5652 19.3505 24.5638 19.094 24.5638C18.838 24.5638 18.582 24.5652 18.3256 24.5665C17.8113 24.5692 17.2952 24.572 16.7737 24.5638C15.9921 24.5517 15.4548 24.0644 15.4426 23.37C15.4304 22.6513 15.9799 22.1397 16.7981 22.1397C18.3369 22.1275 19.8878 22.1275 21.4266 22.1397C22.2081 22.1518 22.7455 22.6391 22.7577 23.3335C22.7699 24.04 22.2204 24.5517 21.4021 24.5638C20.8892 24.572 20.3763 24.5692 19.8634 24.5665Z"/>
</mask>
<path fill-rule="evenodd" clip-rule="evenodd" d="M32.1367 0.200195H19.1307H6.13687C4.81795 0.200195 4.45159 0.56565 4.45159 1.84474V15.6102C4.45159 16.8771 4.83017 17.2547 6.07581 17.2547H32.1367C33.3823 17.2547 33.7609 16.8771 33.7609 15.6102V1.84474C33.7609 0.577832 33.3823 0.200195 32.1367 0.200195ZM2.37551 27.0002H19.0452H35.8492C36.1423 27.0002 36.4598 26.988 36.7407 26.8906C37.3879 26.6713 37.5833 26.1353 37.2536 25.5384C36.0937 23.4192 34.9215 21.3121 33.7494 19.2051L33.7487 19.2038C33.4678 18.7166 33.0648 18.4729 32.503 18.4729H5.69723C5.13547 18.4729 4.73247 18.7166 4.4638 19.2038L4.46378 19.2039C3.29141 21.3113 2.11905 23.4188 0.958897 25.5384C0.629167 26.1353 0.836775 26.6713 1.48402 26.8906C1.75269 26.988 2.07021 27.0002 2.37551 27.0002ZM19.8634 24.5665C19.6069 24.5652 19.3505 24.5638 19.094 24.5638C18.838 24.5638 18.582 24.5652 18.3256 24.5665C17.8113 24.5692 17.2952 24.572 16.7737 24.5638C15.9921 24.5517 15.4548 24.0644 15.4426 23.37C15.4304 22.6513 15.9799 22.1397 16.7981 22.1397C18.3369 22.1275 19.8878 22.1275 21.4266 22.1397C22.2081 22.1518 22.7455 22.6391 22.7577 23.3335C22.7699 24.04 22.2204 24.5517 21.4021 24.5638C20.8892 24.572 20.3763 24.5692 19.8634 24.5665Z" fill="#E60000"/>
<path d="M36.7407 26.8906L36.4198 25.9434L36.4129 25.9458L36.7407 26.8906ZM37.2536 25.5384L36.3764 26.0185L36.3783 26.0219L37.2536 25.5384ZM33.7494 19.2051L34.6233 18.719L34.6224 18.7175L33.7494 19.2051ZM33.7487 19.2038L34.6218 18.7161L34.6151 18.7044L33.7487 19.2038ZM4.4638 19.2038L5.3387 19.6882L5.33951 19.6867L4.4638 19.2038ZM4.46378 19.2039L5.33766 19.69L5.33867 19.6882L4.46378 19.2039ZM0.958897 25.5384L1.83423 26.0219L1.8361 26.0185L0.958897 25.5384ZM1.48402 26.8906L1.82501 25.9505L1.81499 25.9469L1.80489 25.9434L1.48402 26.8906ZM19.8634 24.5665L19.8581 25.5665H19.8581L19.8634 24.5665ZM18.3256 24.5665L18.3203 23.5665H18.3203L18.3256 24.5665ZM16.7737 24.5638L16.7893 23.564H16.7893L16.7737 24.5638ZM15.4426 23.37L14.4427 23.387L14.4427 23.3876L15.4426 23.37ZM16.7981 22.1397V23.1397L16.8061 23.1396L16.7981 22.1397ZM21.4266 22.1397L21.4421 21.1397L21.4345 21.1397L21.4266 22.1397ZM22.7577 23.3335L23.7575 23.3162L23.7575 23.3159L22.7577 23.3335ZM21.4021 24.5638L21.3873 23.5639L21.3863 23.564L21.4021 24.5638ZM19.1307 1.2002H32.1367V-0.799805H19.1307V1.2002ZM6.13687 1.2002H19.1307V-0.799805H6.13687V1.2002ZM5.45159 1.84474C5.45159 1.56242 5.47297 1.39449 5.49805 1.29675C5.5201 1.21081 5.53342 1.22386 5.49945 1.25713C5.46681 1.28911 5.45907 1.27226 5.55672 1.24816C5.6643 1.22161 5.84339 1.2002 6.13687 1.2002V-0.799805C5.46207 -0.799805 4.66579 -0.725997 4.09982 -0.171512C3.52682 0.389849 3.45159 1.18462 3.45159 1.84474H5.45159ZM5.45159 15.6102V1.84474H3.45159V15.6102H5.45159ZM6.07581 16.2547C5.80549 16.2547 5.64378 16.2332 5.54999 16.2086C5.46712 16.1869 5.47689 16.1734 5.50708 16.2039C5.5367 16.2338 5.52145 16.241 5.49865 16.1524C5.47326 16.0538 5.45159 15.8864 5.45159 15.6102H3.45159C3.45159 16.2747 3.53386 17.0537 4.08608 17.6113C4.64147 18.172 5.41937 18.2547 6.07581 18.2547V16.2547ZM32.1367 16.2547H6.07581V18.2547H32.1367V16.2547ZM32.7609 15.6102C32.7609 15.8864 32.7392 16.0538 32.7138 16.1524C32.691 16.241 32.6758 16.2338 32.7054 16.2039C32.7356 16.1734 32.7454 16.1869 32.6625 16.2086C32.5687 16.2332 32.407 16.2547 32.1367 16.2547V18.2547C32.7931 18.2547 33.571 18.172 34.1264 17.6113C34.6786 17.0537 34.7609 16.2747 34.7609 15.6102H32.7609ZM32.7609 1.84474V15.6102H34.7609V1.84474H32.7609ZM32.1367 1.2002C32.407 1.2002 32.5687 1.22176 32.6625 1.24634C32.7454 1.26805 32.7356 1.28156 32.7054 1.25107C32.6758 1.22117 32.691 1.21392 32.7138 1.30251C32.7392 1.40118 32.7609 1.56853 32.7609 1.84474H34.7609C34.7609 1.18021 34.6786 0.401241 34.1264 -0.156316C33.571 -0.717079 32.7931 -0.799805 32.1367 -0.799805V1.2002ZM19.0452 26.0002H2.37551V28.0002H19.0452V26.0002ZM35.8492 26.0002H19.0452V28.0002H35.8492V26.0002ZM36.4129 25.9458C36.3056 25.983 36.1384 26.0002 35.8492 26.0002V28.0002C36.1462 28.0002 36.614 27.993 37.0685 27.8353L36.4129 25.9458ZM36.3783 26.0219C36.4107 26.0806 36.4128 26.1066 36.412 26.0999C36.4115 26.0961 36.4104 26.0846 36.4123 26.0668C36.4141 26.0489 36.4187 26.0275 36.4272 26.0049C36.4357 25.9821 36.4467 25.9621 36.4583 25.9458C36.4697 25.9296 36.4798 25.9198 36.4848 25.9155C36.4945 25.9071 36.4802 25.923 36.4198 25.9434L37.0615 27.8377C37.5887 27.6591 38.0793 27.2952 38.2998 26.7073C38.5185 26.1244 38.3925 25.5319 38.1289 25.0549L36.3783 26.0219ZM32.8755 19.6912C34.0479 21.7988 35.2184 23.9028 36.3764 26.0185L38.1308 25.0583C36.9689 22.9355 35.7951 20.8255 34.6233 18.719L32.8755 19.6912ZM32.8756 19.6915L32.8764 19.6927L34.6224 18.7175L34.6217 18.7162L32.8756 19.6915ZM32.503 19.4729C32.6346 19.4729 32.694 19.4998 32.7223 19.5165C32.7525 19.5343 32.8103 19.5784 32.8823 19.7032L34.6151 18.7044C34.4062 18.342 34.1221 18.0206 33.7401 17.7948C33.3562 17.5679 32.9333 17.4729 32.503 17.4729V19.4729ZM5.69723 19.4729H32.503V17.4729H5.69723V19.4729ZM5.33951 19.6867C5.40431 19.5692 5.45684 19.53 5.48228 19.5148C5.50703 19.5001 5.56492 19.4729 5.69723 19.4729V17.4729C5.26779 17.4729 4.84329 17.5676 4.45894 17.7965C4.07526 18.025 3.79196 18.3512 3.58809 18.721L5.33951 19.6867ZM5.33867 19.6882L5.3387 19.6882L3.58891 18.7195L3.58889 18.7196L5.33867 19.6882ZM1.8361 26.0185C2.99433 23.9024 4.16502 21.798 5.33766 19.69L3.5899 18.7177C2.41781 20.8247 1.24377 22.9351 0.081697 25.0583L1.8361 26.0185ZM1.80489 25.9434C1.74355 25.9227 1.72679 25.9058 1.73387 25.9119C1.73767 25.9152 1.74663 25.9237 1.75732 25.9385C1.76815 25.9535 1.77882 25.9723 1.78736 25.9943C1.79589 26.0163 1.80074 26.0375 1.80288 26.0559C1.80499 26.0742 1.80409 26.0866 1.80346 26.0918C1.80229 26.1014 1.80319 26.0781 1.83423 26.0219L0.0835678 25.0549C-0.183832 25.5389 -0.303138 26.1356 -0.0771718 26.7179C0.148741 27.3 0.639181 27.6602 1.16316 27.8377L1.80489 25.9434ZM2.37551 26.0002C2.06616 26.0002 1.91041 25.9815 1.82501 25.9505L1.14303 27.8306C1.59497 27.9946 2.07426 28.0002 2.37551 28.0002V26.0002ZM19.094 25.5638C19.3474 25.5638 19.6012 25.5652 19.8581 25.5665L19.8687 23.5666C19.6127 23.5652 19.3536 23.5638 19.094 23.5638V25.5638ZM18.3308 25.5665C18.5877 25.5652 18.8411 25.5638 19.094 25.5638V23.5638C18.835 23.5638 18.5763 23.5652 18.3203 23.5665L18.3308 25.5665ZM16.7581 25.5637C17.2918 25.572 17.8182 25.5692 18.3308 25.5665L18.3203 23.5665C17.8044 23.5693 17.2987 23.5719 16.7893 23.564L16.7581 25.5637ZM14.4427 23.3876C14.4535 24.0025 14.7039 24.5641 15.1508 24.9661C15.5905 25.3617 16.164 25.5545 16.7581 25.5637L16.7893 23.564C16.6019 23.561 16.5159 23.504 16.4885 23.4793C16.4683 23.4611 16.4438 23.4319 16.4424 23.3524L14.4427 23.3876ZM16.7981 21.1397C16.1816 21.1397 15.5856 21.3345 15.1341 21.7473C14.6749 22.1673 14.432 22.7543 14.4427 23.387L16.4424 23.353C16.4416 23.3041 16.4502 23.2759 16.4562 23.2617C16.462 23.2479 16.4701 23.2358 16.4838 23.2233C16.5085 23.2006 16.5965 23.1397 16.7981 23.1397V21.1397ZM21.4345 21.1397C19.8905 21.1275 18.3342 21.1275 16.7902 21.1397L16.8061 23.1396C18.3395 23.1275 19.8852 23.1275 21.4186 23.1396L21.4345 21.1397ZM23.7575 23.3159C23.7467 22.701 23.4964 22.1394 23.0495 21.7373C22.6098 21.3417 22.0363 21.149 21.4421 21.1398L21.411 23.1395C21.5984 23.1425 21.6844 23.1995 21.7118 23.2241C21.732 23.2423 21.7565 23.2716 21.7579 23.3511L23.7575 23.3159ZM21.417 25.5637C22.0295 25.5546 22.6192 25.3557 23.0661 24.947C23.5214 24.5307 23.7685 23.9486 23.7575 23.3162L21.7578 23.3507C21.7586 23.3941 21.7509 23.4189 21.7455 23.4315C21.7402 23.444 21.732 23.4569 21.7165 23.471C21.6872 23.4979 21.593 23.5609 21.3873 23.5639L21.417 25.5637ZM19.8581 25.5665C20.3693 25.5692 20.8927 25.572 21.418 25.5637L21.3863 23.564C20.8857 23.5719 20.3834 23.5693 19.8687 23.5666L19.8581 25.5665Z" fill="#E60000" mask="url(#path-1-inside-1_167_9984)"/>
</g>
</g>
<defs>
<filter id="filter0_b_167_9984" x="-11.1958" y="-11.7998" width="60.6069" height="50.7998" filterUnits="userSpaceOnUse" color-interpolation-filters="sRGB">
<feFlood flood-opacity="0" result="BackgroundImageFix"/>
<feGaussianBlur in="BackgroundImageFix" stdDeviation="6"/>
<feComposite in2="SourceAlpha" operator="in" result="effect1_backgroundBlur_167_9984"/>
<feBlend mode="normal" in="SourceGraphic" in2="effect1_backgroundBlur_167_9984" result="shape"/>
</filter>
<clipPath id="clip0_167_9984">
<rect width="36.6" height="26.8" fill="white" transform="translate(0.800049 0.200195)"/>
</clipPath>
</defs>
</svg>
