<svg width="19" height="14" viewBox="0 0 19 14" fill="none" xmlns="http://www.w3.org/2000/svg">
<path d="M9.59912 9.5C10.9798 9.5 12.0991 8.38071 12.0991 7C12.0991 5.61929 10.9798 4.5 9.59912 4.5C8.21841 4.5 7.09912 5.61929 7.09912 7C7.09912 8.38071 8.21841 9.5 9.59912 9.5Z" fill="#999999"/>
<path fill-rule="evenodd" clip-rule="evenodd" d="M0.701964 6.53891C1.94134 2.81309 5.45571 0.125 9.59955 0.125C13.7415 0.125 17.2545 2.8106 18.4954 6.53371C18.5957 6.8346 18.5958 7.16015 18.4957 7.46109C17.2563 11.1869 13.7419 13.875 9.59809 13.875C5.45618 13.875 1.94315 11.1894 0.702237 7.46629C0.601952 7.16541 0.601857 6.83986 0.701964 6.53891ZM13.9741 7C13.9741 9.41625 12.0154 11.375 9.59912 11.375C7.18288 11.375 5.22412 9.41625 5.22412 7C5.22412 4.58375 7.18288 2.625 9.59912 2.625C12.0154 2.625 13.9741 4.58375 13.9741 7Z" fill="#999999"/>
</svg>
