<svg width="25" height="24" viewBox="0 0 25 24" fill="none" xmlns="http://www.w3.org/2000/svg">
<path d="M6.238 10.9585C7.17874 10.9585 8.02756 10.4384 8.60811 9.69811C9.51014 8.54797 10.647 7.59079 11.9465 6.89875C12.789 6.45007 13.52 5.78349 13.8745 4.89724C14.1226 4.27711 14.25 3.61534 14.25 2.94744V2.2085C14.25 1.72525 14.6418 1.3335 15.125 1.3335C16.5747 1.3335 17.75 2.50875 17.75 3.9585C17.75 5.30206 17.4472 6.5749 16.9061 7.71249C16.5962 8.36388 17.0309 9.2085 17.7522 9.2085M17.7522 9.2085H21.399C22.5968 9.2085 23.6689 10.0182 23.7957 11.2092C23.8481 11.7018 23.875 12.202 23.875 12.7085C23.875 16.0307 22.7178 19.0827 20.7845 21.4833C20.3323 22.0448 19.6332 22.3335 18.9123 22.3335H14.227C13.6627 22.3335 13.1021 22.2425 12.5668 22.0641L8.93324 20.8529C8.39791 20.6745 7.83732 20.5835 7.27304 20.5835H5.38824M17.7522 9.2085H15.125M5.38824 20.5835C5.48485 20.8222 5.58999 21.0565 5.70327 21.2861C5.93326 21.7522 5.61223 22.3335 5.09245 22.3335H4.03337C2.99654 22.3335 2.0349 21.7291 1.73232 20.7374C1.33743 19.4432 1.125 18.0694 1.125 16.646C1.125 14.8348 1.46894 13.1039 2.09507 11.5151C2.45097 10.612 3.36189 10.0835 4.33258 10.0835H5.5608C6.11138 10.0835 6.43019 10.7321 6.14435 11.2026C5.1802 12.7899 4.625 14.6531 4.625 16.646C4.625 18.0384 4.89604 19.3676 5.38824 20.5835Z" stroke="white" stroke-width="2" stroke-linecap="round" stroke-linejoin="round"/>
</svg>
