<svg width="25" height="24" viewBox="0 0 25 24" fill="none" xmlns="http://www.w3.org/2000/svg">
<path d="M20.7997 4.57548C24.9002 8.67598 24.9002 15.3242 20.7997 19.4247M17.7064 7.66917C20.0984 10.0611 20.0984 13.9393 17.7064 16.3312M6.375 7.62516L11.8813 2.11888C12.4325 1.56766 13.375 1.95805 13.375 2.7376V21.2627C13.375 22.0423 12.4325 22.4327 11.8813 21.8814L6.375 16.3752H3.76056C2.73466 16.3752 1.77356 15.7843 1.5011 14.7952C1.25595 13.9053 1.125 12.968 1.125 12.0002C1.125 11.0323 1.25595 10.095 1.5011 9.2051C1.77356 8.21604 2.73466 7.62516 3.76056 7.62516H6.375Z" stroke="white" stroke-width="2" stroke-linecap="round" stroke-linejoin="round"/>
</svg>
